<svg xmlns="http://www.w3.org/2000/svg" viewBox="0 0 25 25.003"><defs><style>.a{fill:#e9e9e9;}</style></defs><path class="a" d="M89.85,85.59a4.167,4.167,0,1,0-1.221,2.946A4.014,4.014,0,0,0,89.85,85.59Zm8.334-1.774V87.43a.629.629,0,0,1-.13.375.493.493,0,0,1-.325.211l-3.012.456a10.439,10.439,0,0,1-.634,1.481q.57.814,1.742,2.246a.627.627,0,0,1,.163.407.544.544,0,0,1-.147.375,16.5,16.5,0,0,1-1.612,1.758q-1.172,1.156-1.53,1.156a.794.794,0,0,1-.423-.147L90.03,93.989a9.3,9.3,0,0,1-1.481.619,26.632,26.632,0,0,1-.472,3.027.548.548,0,0,1-.586.456H83.877a.616.616,0,0,1-.4-.139.479.479,0,0,1-.187-.35l-.456-3A10.073,10.073,0,0,1,81.37,94l-2.3,1.742a.585.585,0,0,1-.407.147.56.56,0,0,1-.407-.179,21.476,21.476,0,0,1-2.685-2.735.638.638,0,0,1-.114-.375.629.629,0,0,1,.13-.375q.244-.342.83-1.083T77.3,90a8.062,8.062,0,0,1-.667-1.612l-2.979-.439a.515.515,0,0,1-.342-.2.614.614,0,0,1-.13-.383V83.75a.629.629,0,0,1,.13-.375.487.487,0,0,1,.309-.211l3.027-.456a8.075,8.075,0,0,1,.634-1.5q-.651-.928-1.742-2.246a.611.611,0,0,1-.163-.391.685.685,0,0,1,.147-.375,16.122,16.122,0,0,1,1.6-1.75q1.18-1.164,1.539-1.164a.691.691,0,0,1,.423.163l2.246,1.742a9.294,9.294,0,0,1,1.481-.619,26.632,26.632,0,0,1,.472-3.027.548.548,0,0,1,.586-.456H87.49a.616.616,0,0,1,.4.139.48.48,0,0,1,.187.35l.456,3a10.073,10.073,0,0,1,1.465.6l2.312-1.742a.528.528,0,0,1,.391-.147.627.627,0,0,1,.407.163,22.177,22.177,0,0,1,2.685,2.767.526.526,0,0,1,.114.358.629.629,0,0,1-.13.375q-.244.342-.83,1.083t-.879,1.148a9.836,9.836,0,0,1,.667,1.6l2.979.456a.515.515,0,0,1,.342.2A.614.614,0,0,1,98.184,83.817Z" transform="translate(-73.184 -73.088)"/></svg>