<svg xmlns="http://www.w3.org/2000/svg" viewBox="0 0 24 12"><defs><style>.a,.b,.e{fill:none;}.b{stroke:#e9e9e9;}.c,.d{stroke:none;}.d{fill:#e9e9e9;}</style></defs><g transform="translate(-1198 -25)"><g class="a" transform="translate(1173 62)"><path class="c" d="M25-25v-9h3v-3H49v9H46v3Z"/><path class="d" d="M 44.99990081787109 -26.00020027160645 L 44.99990081787109 -27.99989891052246 L 44.99990081787109 -28.99989891052246 L 45.99990081787109 -28.99989891052246 L 47.99959945678711 -28.99989891052246 L 47.99959945678711 -35.99990081787109 L 28.99990081787109 -35.99990081787109 L 28.99990081787109 -34.00019836425781 L 28.99990081787109 -33.00019836425781 L 27.99990081787109 -33.00019836425781 L 26.00020027160645 -33.00019836425781 L 26.00020027160645 -26.00020027160645 L 44.99990081787109 -26.00020027160645 M 45.99990081787109 -25.00020027160645 L 25.00020027160645 -25.00020027160645 L 25.00020027160645 -34.00019836425781 L 27.99990081787109 -34.00019836425781 L 27.99990081787109 -36.99990081787109 L 48.99959945678711 -36.99990081787109 L 48.99959945678711 -27.99989891052246 L 45.99990081787109 -27.99989891052246 L 45.99990081787109 -25.00020027160645 Z"/></g><g class="b" transform="translate(1198 28)"><rect class="c" width="21" height="9"/><rect class="e" x="0.5" y="0.5" width="20" height="8"/></g></g></svg>